<?xml version="1.0" encoding="UTF-8"?><svg id="a" xmlns="http://www.w3.org/2000/svg" xmlns:xlink="http://www.w3.org/1999/xlink" viewBox="0 0 365.28 166.32"><defs><filter id="b" filterUnits="userSpaceOnUse"><feOffset dx="7" dy="7"/><feGaussianBlur result="c" stdDeviation="5"/><feFlood flood-color="#000" flood-opacity=".46"/><feComposite in2="c" operator="in"/><feComposite in="SourceGraphic"/></filter></defs><g style="filter:url(#b);"><path d="m16.73,28.6h54v14.76h-37.2v25.92h32.76v14.4h-32.76v11.76h38.88v14.76H16.73V28.6Z" style="fill:#00ffce;"/><path d="m82.37,91v-18.48h-7.56v-13.44h7.56v-26.64h16.08v26.64h13.08v13.44h-13.08v18.96c0,5.16,1.68,6.24,4.2,6.24s4.56-1.44,5.64-2.16l6.12,11.28c-2.52,2.04-6.84,4.68-14.28,4.68-10.32,0-17.76-5.16-17.76-20.52Z" style="fill:#00ffce;"/><path d="m114.77,101.56l9.48-8.4c3.48,3.36,7.92,5.4,12.72,5.4,5.28,0,6.96-.96,6.96-3.12,0-2.76-3.24-2.76-11.52-4.92-6.96-1.8-14.76-5.64-14.76-16.32,0-11.52,8.88-16.2,19.8-16.2,8.4,0,14.4,2.76,18.6,7.08l-8.64,9.24c-2.4-2.04-6-3.84-9.84-3.84s-5.52.96-5.52,3c0,2.88,3.24,3.24,10.2,4.8,7.44,1.68,16.8,5.16,16.8,15.96,0,9.36-4.92,17.04-21,17.04-11.88,0-18.84-4.44-23.28-9.72Z" style="fill:#00ffce;"/><path d="m178.01,105.4l-20.28-46.32h17.88l7.32,19.68c1.8,4.8,3.6,13.2,3.6,13.2,0,0,1.56-8.52,3.48-13.2l7.92-19.68h16.44l-33.48,76.56h-16.2l13.32-30.24Z" style="fill:#00ffce;"/><path d="m205.85,100.72c0-5.88,4.68-10.08,10.2-10.08s10.08,4.2,10.08,10.08-4.68,10.2-10.08,10.2-10.2-4.2-10.2-10.2Z" style="fill:#00ffce;"/><path d="m230.09,95.92l13.68-8.28c2.64,4.68,5.04,8.64,10.8,8.64s9-2.16,9-10.56V28.6h16.8v57.36c0,17.4-10.2,25.32-25.08,25.32-13.44,0-21.24-6.96-25.2-15.36Z" style="fill:#00ffce;"/><path d="m284.68,94.12l13.68-7.92c3.6,5.88,8.28,10.2,16.56,10.2,6.96,0,11.4-3.48,11.4-8.28,0-5.76-4.56-7.8-12.24-11.16l-4.2-1.8c-12.12-5.16-20.16-11.64-20.16-25.32,0-12.6,9.6-22.2,24.6-22.2,10.68,0,18.36,3.72,23.88,13.44l-13.08,8.4c-2.88-5.16-6-7.2-10.8-7.2s-8.04,3.12-8.04,7.2c0,5.04,3.12,7.08,10.32,10.2l4.2,1.8c14.28,6.12,22.32,12.36,22.32,26.4,0,15.12-11.88,23.4-27.84,23.4s-25.68-7.44-30.6-17.16Z" style="fill:#00ffce;"/></g></svg>